<?xml version="1.0" encoding="utf-8"?>
<!-- Generator: Adobe Illustrator 16.0.0, SVG Export Plug-In . SVG Version: 6.00 Build 0)  -->
<!DOCTYPE svg PUBLIC "-//W3C//DTD SVG 1.1//EN" "http://www.w3.org/Graphics/SVG/1.1/DTD/svg11.dtd">
<svg version="1.1" id="Layer_1" xmlns="http://www.w3.org/2000/svg" xmlns:xlink="http://www.w3.org/1999/xlink" x="0px" y="0px"
	 width="12.559px" height="10.983px" viewBox="0 0 12.559 10.983" enable-background="new 0 0 12.559 10.983" xml:space="preserve">
<path fill="#FFFFFF" d="M12.329,4.935L7.622,0.23c-0.308-0.307-0.805-0.307-1.112,0c-0.307,0.307-0.307,0.805,0,1.112l3.367,3.365
	H0.785C0.352,4.708,0,5.059,0,5.492c0,0.433,0.352,0.784,0.785,0.784h9.093L6.51,9.642c-0.307,0.307-0.307,0.805,0,1.111
	s0.805,0.307,1.112,0l4.707-4.704c0.153-0.154,0.23-0.355,0.229-0.557C12.56,5.291,12.482,5.088,12.329,4.935z"/>
</svg>
