<?xml version="1.0" encoding="utf-8"?>
<!-- Generator: Adobe Illustrator 16.0.0, SVG Export Plug-In . SVG Version: 6.00 Build 0)  -->
<!DOCTYPE svg PUBLIC "-//W3C//DTD SVG 1.1//EN" "http://www.w3.org/Graphics/SVG/1.1/DTD/svg11.dtd">
<svg version="1.1" id="Layer_1" xmlns="http://www.w3.org/2000/svg" xmlns:xlink="http://www.w3.org/1999/xlink" x="0px" y="0px"
	 width="106.542px" height="52.365px" viewBox="0 0 106.542 52.365" enable-background="new 0 0 106.542 52.365"
	 xml:space="preserve">
<g>
	<path fill="none" stroke="#BDF271" stroke-width="1.895" d="M6.562,46.206c0,0,17.434-12.886,24.256-11.749
		c6.822,1.137,8.717,6.822,13.266,6.443c4.548-0.379,4.548-17.812,22.739-5.306"/>
	<line fill="none" stroke="#BDF271" stroke-width="1.895" x1="70.233" y1="31.551" x2="83.31" y2="50.564"/>
	<path fill="none" stroke="#01A2A6" stroke-width="2.4635" d="M40.687,24.16c0,0,4.547-3.979,9.096-3.979
		c4.548,0,31.228,30.893,31.228,30.893H2.549c0,0,26.153-32.976,31.271-33.545c5.117-0.568,5.161,8.337,9.709,8.906"/>
	<path fill="none" stroke="#01A2A6" stroke-width="2.4635" d="M66.822,35.594c0,0,6.822-9.096,14.402-9.475
		s23.119,25.014,23.119,25.014H80.088"/>
	<path fill="none" stroke="#01A2A6" stroke-width="2.4635" d="M79.824,10.611c0.241-0.714,0.374-1.479,0.374-2.274
		c0-3.924-3.182-7.106-7.106-7.106c-2.147,0-4.071,0.954-5.374,2.46c-0.463-0.122-0.947-0.187-1.447-0.187
		c-3.14,0-5.685,2.545-5.685,5.685c0,0.491,0.062,0.967,0.179,1.421H79.824z"/>
</g>
</svg>
