<?xml version="1.0" encoding="utf-8"?>
<!-- Generator: Adobe Illustrator 16.0.0, SVG Export Plug-In . SVG Version: 6.00 Build 0)  -->
<!DOCTYPE svg PUBLIC "-//W3C//DTD SVG 1.1//EN" "http://www.w3.org/Graphics/SVG/1.1/DTD/svg11.dtd">
<svg version="1.1" id="Layer_1" xmlns="http://www.w3.org/2000/svg" xmlns:xlink="http://www.w3.org/1999/xlink" x="0px" y="0px"
	 width="1559px" height="823.445px" viewBox="2382 5750.475 1559 823.445" enable-background="new 2382 5750.475 1559 823.445"
	 xml:space="preserve">
<g id="referensi">
	<g>
		<g>
			<path fill="#2F2933" d="M2721.465,6126.884c-1.728,0-3.267-1.118-3.803-2.763l0,0c-1.4-4.291-2.169-8.883-2.167-13.644l0,0
				c0.003-17.508,10.229-32.623,25.037-39.701l0,0c1.163-32.944,28.229-59.29,61.457-59.293l0,0
				c20.671,0.001,38.978,10.214,50.117,25.854l0,0c4.196-1.762,8.808-2.737,13.631-2.736l0,0
				c15.703,0.008,28.999,10.26,33.558,24.454l0,0c0.888-0.049,1.783-0.075,2.688-0.075l0,0
				c28.442,0.004,51.495,23.055,51.497,51.497l0,0c0,4.653-0.629,9.162-1.784,13.448l0,0c-0.473,1.749-2.051,2.958-3.862,2.958l0,0
				H2721.465L2721.465,6126.884z M2947.833,6122.882v-4V6122.882L2947.833,6122.882z M2944.661,6118.883
				c0.536-2.721,0.819-5.527,0.819-8.404l0,0c-0.004-12.024-4.862-22.873-12.739-30.758l0,0
				c-7.886-7.875-18.734-12.736-30.759-12.738l0,0c-1.746,0-3.48,0.116-5.209,0.322l0,0c-2.051,0.244-3.957-1.123-4.387-3.142l0,0
				c-2.613-12.306-13.553-21.567-26.65-21.562l0,0c-4.762,0.002-9.207,1.217-13.098,3.352l0,0c-1.861,1.023-4.185,0.421-5.312-1.377
				l0,0c-9.475-15.077-26.225-25.093-45.338-25.091l0,0c-14.784,0.001-28.134,5.979-37.826,15.668l0,0
				c-9.687,9.694-15.668,23.044-15.67,37.83l0,0c0,0.058,0.003,0.188,0.005,0.394l0,0c0.009,1.644-0.977,3.113-2.499,3.729l0,0
				c-13.191,5.345-22.51,18.267-22.504,33.373l0,0c0,2.897,0.346,5.708,0.994,8.405l0,0h220.173V6118.883z"/>
		</g>
	</g>
</g>
<g id="awan__x2B__segi6">
	<path fill="none" stroke="#10273D" stroke-width="8" stroke-linecap="round" stroke-linejoin="round" d="M3023.812,6043.643
		c0,6.651-5.392,12.043-12.043,12.043h-33.722c-6.65,0-12.043-5.392-12.043-12.043l0,0c0-6.65,5.393-12.043,12.043-12.043h33.722
		C3018.421,6031.6,3023.812,6036.992,3023.812,6043.643L3023.812,6043.643z"/>
	<path fill="none" stroke="#10273D" stroke-width="8" stroke-linecap="round" stroke-linejoin="round" d="M3695.455,5976.299
		c-7.271,0-14.132,1.736-20.211,4.8c-0.652-15.172-12.033-27.563-26.75-29.771c-7.143-28.735-33.104-50.035-64.049-50.035
		c-27.998,0-51.907,17.439-61.501,42.041c-0.502-0.012-1-0.037-1.507-0.037c-29.125,0-53.623,19.769-60.839,46.615
		c-5.058-1.054-10.297-1.611-15.667-1.611c-28.623,0-53.558,15.729-66.678,39.004h361.797c0.262-1.964,0.41-3.964,0.41-6
		C3740.459,5996.449,3720.311,5976.299,3695.455,5976.299z"/>
	<path fill="#FFFFFF" d="M3609.27,5903.975l-12,148.494l77.996,3c0,0,3-127.494-7.5-145.494
		C3657.266,5891.977,3609.27,5903.975,3609.27,5903.975z"/>
	<circle fill="#10273D" cx="3219.29" cy="5878.477" r="4.5"/>
	<circle fill="#10273D" cx="2921.391" cy="5866.299" r="4.5"/>
	<circle fill="#10273D" cx="3335.434" cy="5680.281" r="4.5"/>
	<circle fill="#10273D" cx="3372.936" cy="5945.809" r="4.5"/>
	<circle fill="#10273D" cx="3258.925" cy="6002.812" r="4.5"/>
	<circle fill="#10273D" cx="3540.953" cy="5789.792" r="4.5"/>
	<circle fill="#10273D" cx="2916.891" cy="5966.811" r="4.5"/>
	<circle fill="#10273D" cx="2675.367" cy="6172.33" r="4.5"/>
	<circle fill="#10273D" cx="2738.373" cy="5837.796" r="4.5"/>
	<circle fill="#10273D" cx="2993.398" cy="5713.284" r="4.5"/>
	<circle fill="#29D9C2" cx="3728.472" cy="6109.324" r="4.5"/>
	<circle fill="#29D9C2" cx="3158.416" cy="5740.287" r="4.5"/>
	<circle fill="#29D9C2" cx="3060.905" cy="5882.801" r="4.5"/>
	<circle fill="#29D9C2" cx="2634.863" cy="5924.807" r="4.5"/>
</g>
<g id="gunung">
	<path fill="#FFFFFF" d="M3253,6197.918c0,0-118-138-164-190c-50.46-57.042-69.732,17.072-96,10c-52-14-254,258-260,262"/>
	<path fill="#BDF271" d="M3023,6001.918c0,0-34,104-34,126s16,54,16,54l-22-16c0,0,4,14,4,26s32,26,30,42s18,16,18,16l-8,26
		l20.667,2.667l32.461-14.257l-35.127-2.409l81.333-40.667l112-2.667l6.667-26.667c0,0-94-110-118-136s-56-76-76-68
		S3023,6001.918,3023,6001.918z"/>
	<g>
		<g>
			<path fill="#2F2933" d="M2729.671,6282.137c-1.168-1.752-0.771-4.092,0.864-5.369l0,0c0.033-0.033,0.086-0.086,0.148-0.153l0,0
				c0.205-0.215,0.524-0.571,0.92-1.034l0,0c0.799-0.93,1.919-2.284,3.312-4l0,0c2.787-3.436,6.668-8.326,11.451-14.366l0,0
				c9.571-12.082,22.752-28.771,38.123-47.788l0,0c30.743-38.037,70.227-85.383,107.211-123.971l0,0
				c24.677-25.731,48.17-47.559,67.56-60.285l0,0c11.125-7.234,20.835-11.701,29.547-11.775l0,0c1.795,0,3.548,0.208,5.227,0.659
				l0,0c0.884,0.237,1.729,0.343,2.575,0.343l0,0c2.282,0.004,4.748-0.803,7.524-2.425l0,0c2.763-1.61,5.744-4.002,8.876-6.767l0,0
				c6.29-5.521,13.117-12.51,21.314-17.42l0,0c5.459-3.263,11.657-5.602,18.602-5.598l0,0c11.735,0.012,24.511,6.596,39.069,23.08
				l0,0c46.051,52.061,164.032,190.04,164.043,190.051l0,0h0.002c1.435,1.68,1.237,4.205-0.442,5.641l0,0
				c-1.68,1.436-4.206,1.237-5.641-0.442l0,0c-0.019-0.021-7.373-8.622-19.152-22.371l0,0
				c-11.781-13.749-27.967-32.624-45.591-53.121l0,0c-35.244-40.992-76.246-88.494-99.212-114.457l0,0
				c-13.871-15.653-24.575-20.392-33.076-20.38l0,0c-7.643-0.02-14.564,3.855-21.37,9.314l0,0
				c-6.792,5.418-13.147,12.221-19.921,17.111l0,0c-4.512,3.229-9.411,5.762-15.025,5.784l0,0c-1.533,0-3.095-0.201-4.651-0.617l0,0
				c-0.927-0.25-1.97-0.385-3.15-0.385l0,0c-5.297-0.06-13.333,2.991-22.76,8.929l0,0c-9.451,5.901-20.363,14.527-32.103,25.045l0,0
				c-23.496,21.041-50.341,49.646-76.468,79.424l0,0c-52.284,59.588-101.681,123.808-116.845,142.436l0,0
				c-2.052,2.516-3.412,4.146-4.378,5.133l0,0c-0.285,0.273-0.458,0.482-1.037,0.885l0,0c-0.681,0.455-1.452,0.672-2.214,0.672l0,0
				C2731.712,6283.918,2730.443,6283.293,2729.671,6282.137L2729.671,6282.137z"/>
		</g>
	</g>
	<path fill="#BDF271" d="M3439,6099.918c0,0-5,32-5,41s15,11,18,22s7,34,7,34s-12-28-18-31s-10-6-10-6s11,17,12,28s7,25,7,25
		s2,23,3,35s23,32,23,32h174c0,0-112.764-169.177-177-184C3447,6089.918,3439,6099.918,3439,6099.918z"/>
	<path fill="none" stroke="#10273D" stroke-width="8" stroke-linecap="round" stroke-linejoin="round" d="M3128.425,6328.343
		c0,0,198.855-213.878,225.857-225.879s35.998,15.001,106.495-7.497c60.295-19.242,234.705,239.376,234.705,239.376
		L3128.425,6328.343z"/>
	<path fill="#BDF271" d="M3323,6277.918c0,0,8-46,10-51s24-30,27-41s9-29,9-29s-5,51-13,67s-3,54-3,54H3323z"/>
	<path fill="#BDF271" d="M3380,6275.918c0,0,7-41,7-47s6-50,7-61s5-40,5-40s4,79,2,93s1,20,2,26s-2,30-2,30L3380,6275.918z"/>
	<path fill="#FFFFFF" d="M3496.775,6169.463c0,0,12,7.5,15,26.999s20.998,28.498,20.998,28.498l-26.998-11.999
		C3505.775,6212.961,3507.275,6191.962,3496.775,6169.463z"/>
	<path fill="#FFFFFF" d="M3052,6045.918c0,0,31,16,34,31s2.796,29.547,2.796,29.547s12,0.001,14.999,6s16.499,37.498,16.499,37.498
		s-22.499-25.5-28.499-29.999S3080,6078.417,3077,6073.918S3052,6045.918,3052,6045.918z"/>
	<path fill="#FFFFFF" d="M3068,6246.918c0,0-25-22-27-40s-9-36-9-36l-27-35c0,0,41,20,43,31s32,78,32,78L3068,6246.918z"/>
	<polygon fill="#BDF271" points="2911,6275.918 2951,6117.918 2933,6281.918 	"/>
	<polygon fill="#BDF271" points="2804.38,6278.842 2873.387,6206.834 2828.382,6272.841 	"/>
</g>
<g id="gunung_putih">
	<polygon fill="#FFFFFF" points="3103,6219.918 3167,6189.918 3238.333,6218.585 3223,6225.251 3287.667,6261.918 
		3260.333,6261.918 3291.667,6278.585 3596,6278.585 3598,6202.918 3597,6172.918 3675,6291.918 3396,6363.918 3065,6337.918 	"/>
</g>
<g id="walikota">
	<polygon fill="#29D9C2" points="3039.277,6279.453 2709.294,6276.454 2599.799,6370.449 3021.077,6370.449 3021.077,6312.918 
		2988.077,6310.918 	"/>
	<polygon fill="#29D9C2" points="3291.799,6279.453 3621.783,6276.454 3731.277,6370.449 3310,6370.449 3310,6312.918 
		3343,6310.918 	"/>
	<polygon fill="#29D9C2" points="3062,6273.918 3246,6273.918 3312,6309.918 3338,6307.918 3256,6261.918 3074,6260.918 	"/>
	<polygon fill="#29D9C2" points="3122,6221.918 3210,6221.918 3279,6257.918 3250,6261.918 3198,6233.918 3108,6233.918 	"/>
	<polygon fill="#29D9C2" points="3165,6192.918 3182,6220.918 3226,6216.918 	"/>
	<polygon fill="#29D9C2" points="3029,6331.918 3116,6331.918 3309,6331.918 3310,6312.918 3027,6312.918 	"/>
	<polygon fill="#29D9C2" points="3095,6342.918 3236,6342.918 3220,6328.918 3116,6331.918 	"/>
	<polygon fill="#29D9C2" points="3206.333,6388.586 3206.333,6433.92 3265.667,6433.92 3265.667,6386.586 	"/>
	<polygon fill="#29D9C2" points="3139.667,6388.586 3139.667,6433.92 3199,6433.92 3199,6386.586 	"/>
	<polygon fill="#29D9C2" points="3073.667,6388.586 3073.667,6433.92 3133,6433.92 3133,6386.586 	"/>
	<polygon fill="#29D9C2" points="3075.667,6480.002 3075.667,6557.42 3088.001,6557.42 3088.001,6476.586 	"/>
	<polygon fill="#29D9C2" points="3141.667,6480.002 3141.667,6557.42 3154,6557.42 3154,6476.586 	"/>
	<polygon fill="#29D9C2" points="3208.167,6480.002 3208.167,6557.42 3220.5,6557.42 3220.5,6476.586 	"/>
	<polygon fill="#A6D1E7" points="3272.664,6480.002 3272.664,6557.42 3284.998,6557.42 3284.998,6476.586 	"/>
	<polygon fill="#01A2A6" points="3344.334,6371.254 3344.334,6391.921 3311.667,6391.921 3311.667,6367.921 	"/>
	<polygon fill="#01A2A6" points="3344.334,6543.227 3344.334,6569.921 3311.667,6569.921 3311.667,6538.921 	"/>
	<polygon fill="#01A2A6" points="3334.333,6392.587 3334.333,6451.253 3311,6451.253 3312.333,6392.587 	"/>
	<polygon fill="#01A2A6" points="3334.333,6465.087 3334.333,6543.253 3311,6543.253 3312.333,6465.087 	"/>
	<polygon fill="#01A2A6" points="3341.5,6453.418 3341.5,6465.918 3313,6463.918 3314.5,6450.418 	"/>
	<rect x="3325.667" y="6466.585" fill="#01A2A6" width="372.667" height="5.333"/>
	<rect x="3331" y="6389.918" fill="#29D9C2" width="367.333" height="14.666"/>
	<rect x="3368.333" y="6407.251" fill="#29D9C2" width="20.667" height="28.667"/>
	<rect x="3429.333" y="6407.251" fill="#29D9C2" width="20.667" height="28.667"/>
	<rect x="3611.333" y="6407.251" fill="#A6D1E7" width="20.667" height="28.667"/>
	<rect x="2951.482" y="6407.251" fill="#29D9C2" width="20.666" height="28.667"/>
	<rect x="2859.987" y="6407.251" fill="#29D9C2" width="20.667" height="28.667"/>
	<rect x="2798.49" y="6407.251" fill="#29D9C2" width="20.667" height="28.667"/>
	<rect x="2768.491" y="6407.251" fill="#29D9C2" width="20.667" height="28.667"/>
	<rect x="3344" y="6481.918" fill="#A6D1E7" width="29" height="42"/>
	<rect x="2872.32" y="6481.918" fill="#29D9C2" width="29" height="42"/>
	<rect x="2777.824" y="6481.918" fill="#29D9C2" width="29" height="42"/>
	<rect x="3532" y="6481.918" fill="#A6D1E7" width="29" height="42"/>
	<polygon fill="#29D9C2" points="3247,6324.918 3290,6357.918 3290,6366.918 3295,6366.918 3295,6391.418 3290,6391.418 
		3290,6426.418 3294,6426.418 3294,6452.918 3290.5,6452.918 3290.5,6464.418 3294.5,6464.418 3294.5,6556.918 3275,6553.918 
		3275.5,6490.918 3279,6488.418 3278,6444.418 3276,6431.918 3268.5,6375.418 3268,6359.918 3214.5,6321.918 	"/>
	<rect x="3013" y="6371.418" fill="#01A2A6" width="12.5" height="20"/>
	<rect x="3008.5" y="6391.418" fill="#01A2A6" width="20" height="62"/>
	<rect x="3016" y="6451.418" fill="#A6D1E7" width="9" height="13"/>
	<rect x="3009.5" y="6463.418" fill="#01A2A6" width="16.5" height="78"/>
	<rect x="3017.5" y="6539.918" fill="#01A2A6" width="7.5" height="29.5"/>
	<rect x="2628.832" y="6372.45" fill="#01A2A6" width="390.418" height="8.97"/>
	<rect x="2637.832" y="6463.947" fill="#01A2A6" width="389.98" height="17.998"/>
	<polygon fill="#01A2A6" points="3332,6276.918 3383,6321.918 3339,6321.918 3339,6370.918 3307,6371.918 3310,6312.918 
		3343,6310.918 3296,6279.918 	"/>
	<polygon fill="#01A2A6" points="3039,6279.918 2972.316,6324.455 3011.314,6324.455 3011.314,6372.453 3027,6372.918 
		3027,6310.918 3003,6308.918 	"/>
	<polygon fill="none" stroke="#10273D" stroke-width="8" stroke-linecap="round" stroke-linejoin="round" points="
		3094.997,6221.855 3167.279,6192.102 3239.561,6221.855 	"/>
	<polyline fill="none" stroke="#10273D" stroke-width="8" stroke-linecap="round" stroke-linejoin="round" points="
		3256.395,6261.637 3345.275,6311.109 2992.666,6311.109 3074.929,6261.782 	"/>
	<polyline fill="none" stroke="#10273D" stroke-width="8" stroke-linecap="round" stroke-linejoin="round" points="
		3207.213,6221.924 3290.535,6261.675 3044.021,6261.675 3128.624,6221.924 	"/>
	<polyline fill="none" stroke="#10273D" stroke-width="8" stroke-linecap="round" stroke-linejoin="round" points="
		3039.843,6278.232 2718.425,6278.232 2602.538,6372.252 3023.513,6372.252 	"/>
	
		<line fill="none" stroke="#10273D" stroke-width="8" stroke-linecap="round" stroke-linejoin="round" x1="3027.453" y1="6310.848" x2="3027.453" y2="6568.133"/>
	
		<line fill="none" stroke="#10273D" stroke-width="8" stroke-linecap="round" stroke-linejoin="round" x1="3309.514" y1="6310.848" x2="3309.514" y2="6568.133"/>
	<polygon fill="none" stroke="#10273D" stroke-width="8" stroke-linecap="round" stroke-linejoin="round" points="
		3113.795,6330.709 3061.093,6360.57 3273.688,6360.57 3220.984,6330.709 	"/>
	
		<rect x="3066.811" y="6361.206" fill="none" stroke="#10273D" stroke-width="8" stroke-linecap="round" stroke-linejoin="round" width="201.16" height="13.283"/>
	
		<rect x="3051.21" y="6375.896" fill="none" stroke="#10273D" stroke-width="8" stroke-linecap="round" stroke-linejoin="round" width="233.241" height="9.396"/>
	
		<rect x="3051.21" y="6436.148" fill="none" stroke="#10273D" stroke-width="8" stroke-linecap="round" stroke-linejoin="round" width="233.241" height="9.396"/>
	
		<rect x="3051.21" y="6469.677" fill="none" stroke="#10273D" stroke-width="8" stroke-linecap="round" stroke-linejoin="round" width="233.241" height="9.396"/>
	
		<rect x="3056.312" y="6447.84" fill="none" stroke="#10273D" stroke-width="8" stroke-linecap="round" stroke-linejoin="round" width="223.037" height="21.729"/>
	
		<rect x="3064.33" y="6386.288" fill="none" stroke="#10273D" stroke-width="8" stroke-linecap="round" stroke-linejoin="round" width="10.689" height="49.565"/>
	
		<rect x="3060.989" y="6480.312" fill="none" stroke="#10273D" stroke-width="8" stroke-linecap="round" stroke-linejoin="round" width="17.373" height="12.393"/>
	
		<rect x="3126.588" y="6480.312" fill="none" stroke="#10273D" stroke-width="8" stroke-linecap="round" stroke-linejoin="round" width="17.372" height="12.393"/>
	
		<rect x="3191.275" y="6480.312" fill="none" stroke="#10273D" stroke-width="8" stroke-linecap="round" stroke-linejoin="round" width="17.373" height="12.393"/>
	
		<rect x="3260.52" y="6480.312" fill="none" stroke="#10273D" stroke-width="8" stroke-linecap="round" stroke-linejoin="round" width="17.373" height="12.393"/>
	
		<rect x="3263.559" y="6386.288" fill="none" stroke="#10273D" stroke-width="8" stroke-linecap="round" stroke-linejoin="round" width="10.689" height="49.565"/>
	
		<rect x="3129.444" y="6386.288" fill="none" stroke="#10273D" stroke-width="8" stroke-linecap="round" stroke-linejoin="round" width="10.689" height="49.565"/>
	
		<rect x="3194.557" y="6386.288" fill="none" stroke="#10273D" stroke-width="8" stroke-linecap="round" stroke-linejoin="round" width="10.69" height="49.565"/>
	
		<rect x="3064.33" y="6492.704" fill="none" stroke="#10273D" stroke-width="8" stroke-linecap="round" stroke-linejoin="round" width="10.689" height="64.722"/>
	
		<rect x="3263.559" y="6492.704" fill="none" stroke="#10273D" stroke-width="8" stroke-linecap="round" stroke-linejoin="round" width="10.689" height="64.722"/>
	
		<rect x="3129.444" y="6492.704" fill="none" stroke="#10273D" stroke-width="8" stroke-linecap="round" stroke-linejoin="round" width="10.689" height="64.722"/>
	
		<rect x="3194.557" y="6492.704" fill="none" stroke="#10273D" stroke-width="8" stroke-linecap="round" stroke-linejoin="round" width="10.69" height="64.722"/>
	
		<rect x="2627.316" y="6372.253" fill="none" stroke="#10273D" stroke-width="8" stroke-linecap="round" stroke-linejoin="round" width="400.134" height="19.679"/>
	
		<line fill="none" stroke="#10273D" stroke-width="8" stroke-linecap="round" stroke-linejoin="round" x1="3028.561" y1="6292.316" x2="3070.266" y2="6292.316"/>
	
		<line fill="none" stroke="#10273D" stroke-width="8" stroke-linecap="round" stroke-linejoin="round" x1="3123.346" y1="6292.316" x2="3191.59" y2="6292.316"/>
	
		<line fill="none" stroke="#10273D" stroke-width="8" stroke-linecap="round" stroke-linejoin="round" x1="3082.904" y1="6292.316" x2="3096.806" y2="6292.316"/>
	
		<line fill="none" stroke="#10273D" stroke-width="8" stroke-linecap="round" stroke-linejoin="round" x1="3218.13" y1="6292.316" x2="3232.032" y2="6292.316"/>
	
		<line fill="none" stroke="#10273D" stroke-width="8" stroke-linecap="round" stroke-linejoin="round" x1="3253.833" y1="6292.316" x2="3260.784" y2="6292.316"/>
	
		<rect x="2626.756" y="6452.299" fill="none" stroke="#10273D" stroke-width="8" stroke-linecap="round" stroke-linejoin="round" width="398.98" height="11.999"/>
	
		<line fill="none" stroke="#10273D" stroke-width="8" stroke-linecap="round" stroke-linejoin="round" x1="2640.255" y1="6393.802" x2="2640.255" y2="6450.799"/>
	
		<line fill="none" stroke="#10273D" stroke-width="8" stroke-linecap="round" stroke-linejoin="round" x1="2640.255" y1="6467.298" x2="2640.255" y2="6543.797"/>
	<rect x="2675.656" y="6406.302" fill="none" stroke="#10273D" stroke-width="8" width="19.563" height="29.998"/>
	<rect x="2688.152" y="6480.298" fill="none" stroke="#10273D" stroke-width="8" width="28.367" height="43.497"/>
	<rect x="2778.148" y="6480.298" fill="none" stroke="#10273D" stroke-width="8" width="28.367" height="43.497"/>
	<rect x="2872.643" y="6480.298" fill="none" stroke="#10273D" stroke-width="8" width="28.368" height="43.497"/>
	<rect x="2965.638" y="6480.298" fill="none" stroke="#10273D" stroke-width="8" width="28.368" height="43.497"/>
	<rect x="2708.655" y="6406.302" fill="none" stroke="#10273D" stroke-width="8" width="19.563" height="29.998"/>
	<rect x="2767.72" y="6406.302" fill="none" stroke="#10273D" stroke-width="8" width="19.564" height="29.998"/>
	<rect x="2800.72" y="6406.302" fill="none" stroke="#10273D" stroke-width="8" width="19.564" height="29.998"/>
	<rect x="2858.72" y="6406.302" fill="none" stroke="#10273D" stroke-width="8" width="19.564" height="29.998"/>
	<rect x="2891.72" y="6406.302" fill="none" stroke="#10273D" stroke-width="8" width="19.564" height="29.998"/>
	<rect x="2950.72" y="6406.302" fill="none" stroke="#10273D" stroke-width="8" width="19.564" height="29.998"/>
	<rect x="2983.72" y="6406.302" fill="none" stroke="#10273D" stroke-width="8" width="19.564" height="29.998"/>
	<polyline fill="none" stroke="#10273D" stroke-width="8" points="3031.501,6570.246 2636.501,6570.246 2636.501,6542.246 
		3031.501,6542.246 	"/>
	<polyline fill="none" stroke="#10273D" stroke-width="8" stroke-linecap="round" stroke-linejoin="round" points="3290.3,6278.232 
		3621.189,6278.232 3737.075,6372.252 3316.102,6372.252 	"/>
	
		<rect x="3312.163" y="6372.253" fill="none" stroke="#10273D" stroke-width="8" stroke-linecap="round" stroke-linejoin="round" width="400.135" height="19.679"/>
	
		<rect x="3313.878" y="6452.299" fill="none" stroke="#10273D" stroke-width="8" stroke-linecap="round" stroke-linejoin="round" width="398.979" height="11.999"/>
	
		<line fill="none" stroke="#10273D" stroke-width="8" stroke-linecap="round" stroke-linejoin="round" x1="3699.357" y1="6393.802" x2="3699.357" y2="6450.799"/>
	
		<line fill="none" stroke="#10273D" stroke-width="8" stroke-linecap="round" stroke-linejoin="round" x1="3699.357" y1="6467.298" x2="3699.357" y2="6543.797"/>
	<rect x="3644.395" y="6406.302" fill="none" stroke="#10273D" stroke-width="8" width="19.564" height="29.998"/>
	<rect x="3623.093" y="6480.298" fill="none" stroke="#10273D" stroke-width="8" width="28.368" height="43.497"/>
	<rect x="3533.098" y="6480.298" fill="none" stroke="#10273D" stroke-width="8" width="28.368" height="43.497"/>
	<rect x="3438.604" y="6480.298" fill="none" stroke="#10273D" stroke-width="8" width="28.367" height="43.497"/>
	<rect x="3345.607" y="6480.298" fill="none" stroke="#10273D" stroke-width="8" width="28.367" height="43.497"/>
	<rect x="3611.395" y="6406.302" fill="none" stroke="#10273D" stroke-width="8" width="19.564" height="29.998"/>
	<rect x="3552.33" y="6406.302" fill="none" stroke="#10273D" stroke-width="8" width="19.562" height="29.998"/>
	<rect x="3519.33" y="6406.302" fill="none" stroke="#10273D" stroke-width="8" width="19.562" height="29.998"/>
	<rect x="3461.33" y="6406.302" fill="none" stroke="#10273D" stroke-width="8" width="19.562" height="29.998"/>
	<rect x="3428.33" y="6406.302" fill="none" stroke="#10273D" stroke-width="8" width="19.562" height="29.998"/>
	<rect x="3369.33" y="6406.302" fill="none" stroke="#10273D" stroke-width="8" width="19.562" height="29.998"/>
	<rect x="3336.33" y="6406.302" fill="none" stroke="#10273D" stroke-width="8" width="19.562" height="29.998"/>
	<polyline fill="none" stroke="#10273D" stroke-width="8" points="3308.112,6570.246 3703.112,6570.246 3703.112,6542.246 
		3308.112,6542.246 	"/>
	
		<rect x="3028.463" y="6558.311" fill="none" stroke="#10273D" stroke-width="8" stroke-linecap="round" stroke-linejoin="round" width="279.648" height="11.936"/>
	
		<line fill="none" stroke="#10273D" stroke-width="8" stroke-linecap="round" stroke-linejoin="round" x1="3080.311" y1="6244.958" x2="3152.307" y2="6244.958"/>
	
		<line fill="none" stroke="#10273D" stroke-width="8" stroke-linecap="round" stroke-linejoin="round" x1="3168.311" y1="6244.958" x2="3178.333" y2="6244.958"/>
	
		<line fill="none" stroke="#10273D" stroke-width="8" stroke-linecap="round" stroke-linejoin="round" x1="3211.645" y1="6244.958" x2="3221.667" y2="6244.958"/>
</g>
<g id="tuguputih">
	<path fill="#FFFFFF" d="M3599,6264.918v32l-26,1c0,0-7,13-5,27s2,26,5,31s15,5,15,5l10,10l-43,7l-2,13l3,11l-5,1l-1,21l-12,2l-1,27
		h-138l-2,14l-41-1v16l-19-1l11,15c0,0-22,26-18,41s20,35,20,35h471l-42-98l-47-30l2-16l-11-6l-4-20l-3-21l-43-5l11-15
		c0,0,17-3,18-7s13-50-6-57S3599,6264.918,3599,6264.918z"/>
	<path fill="#29D9C2" d="M3923,6566.848c0,0,14-17.057,14-25.584c0-8.528-607,0-607,0s11,28.996,20,30.701
		C3359,6573.671,3923,6566.848,3923,6566.848z"/>
	<rect x="3359" y="6466.918" fill="#29D9C2" width="559" height="14"/>
	<path fill="#29D9C2" d="M3760.762,6524.945c0-1.658-1.343-3-3-3h-424.479c-1.657,0-3,1.342-3,3l0,0c0,1.656,1.343,3,3,3h424.479
		C3759.419,6527.945,3760.762,6526.602,3760.762,6524.945L3760.762,6524.945z"/>
	<path fill="#A6D1E7" d="M3801.667,6524.584c0,2.025-1.642,3.667-3.667,3.667h-16c-2.025,0-3.667-1.642-3.667-3.667l0,0
		c0-2.023,1.642-3.666,3.667-3.666h16C3800.025,6520.918,3801.667,6522.561,3801.667,6524.584L3801.667,6524.584z"/>
</g>
<g id="awan_putih">
	<path fill="#FFFFFF" d="M2611.667,6438.251c0,0,44,0,50.667,32s1.667,37.667,1.667,37.667s21,6,25,12s5.667,8.667,5.667,8.667
		s26.333-35.333,57-24.667s42.333,48.333,47.333,76l-401-2"/>
	<path fill="#BDF271" d="M2559.513,6476.996c0,0,2.821-1.077,10.311,13.45c-1.489-15.194,12.18-55.026,64.678-50.526
		c-35.999-4.498-42.5-5.5-54.179,2.528C2556.578,6458.77,2559.513,6476.996,2559.513,6476.996"/>
	<path fill="#BDF271" d="M2704,6538.918c0,0,29-39,62.5-27.5c-32-16.5-60-3-68,5.5c-2,7.5,2,16,2,16L2704,6538.918"/>
	<path fill="#BDF271" d="M2657.501,6507.085c0,0-28,1.334-36,28.667c8.666-14,28-23.334,46.666-19.334
		c9.5,1.167,11.334-9.333-4.666-10C2661.993,6506.355,2657.501,6507.085,2657.501,6507.085z"/>
	<path fill="#BDF271" d="M2534.5,6476.418c0,0-25,17-4,40c10.966,12.012,24,0,43,8s11,18,14,27s46,4,52,11s12,9,12,9h-250
		c0,0-6.5-24.5,14.5-39.5l13.5-8h16.5c0,0,26-40.5,68.5-26C2525.5,6476.418,2527.012,6479.375,2534.5,6476.418z"/>
	<path fill="#A5D650" d="M2442.5,6527.418c0,0-22.5-1.5-20.5,43c35,0,128.5-3.5,128.5-3.5s5.5-21-25-23.5s-33.5-9-29.5-24.5
		S2475.5,6482.918,2442.5,6527.418z"/>
</g>
<g id="tugu_line_x2B_warna">
	<g>
		<g>
			<path fill="#2F2933" d="M2796.271,6573.917c-2.209-0.032-3.974-1.851-3.938-4.06l0,0c0.008-0.492,0.011-0.98,0.011-1.467l0,0
				c-0.021-20.32-6.512-35.254-16.52-45.258l0,0c-10.022-9.987-23.762-15.158-38.818-15.166l0,0
				c-15.452,0.002-29.359,6.424-39.292,16.752l0,0c-0.782,0.813-1.854,1.254-2.983,1.227l0,0c-1.127-0.027-2.179-0.521-2.92-1.373
				l0,0c-7.099-8.156-17.439-13.359-29.041-13.584l0,0c-1.311-0.025-2.517-0.684-3.244-1.771l0,0
				c-0.731-1.088-0.883-2.453-0.408-3.676l0,0c2.178-5.611,3.381-11.692,3.383-18.076l0,0c-0.002-13.82-5.591-26.297-14.646-35.357
				l0,0c-9.062-9.057-21.537-14.645-35.358-14.646l0,0c-24.296-0.01-44.544,17.344-49.057,40.307l0,0
				c-0.269,1.363-1.226,2.491-2.529,2.977l0,0c-1.302,0.486-2.764,0.258-3.857-0.596l0,0c-4.169-3.252-9.369-5.184-15.063-5.186l0,0
				c-9.259-0.002-17.301,5.131-21.478,12.707l0,0c-0.538,0.977-1.455,1.683-2.535,1.953l0,0c-1.08,0.271-2.221,0.08-3.153-0.528l0,0
				c-6.436-4.19-14.083-6.626-22.338-6.627l0,0c-11.336,0.001-21.562,4.583-28.995,12.01l0,0
				c-7.427,7.433-12.009,17.658-12.01,28.995l0,0c0,2.21-1.791,4-4,4l0,0c-2.208,0-4-1.79-4-4l0,0
				c0.004-27.068,21.938-49.002,49.005-49.005l0,0c8.398-0.002,16.321,2.127,23.234,5.86l0,0
				c5.905-8.097,15.479-13.361,26.271-13.363l0,0c5.399-0.001,10.506,1.327,14.993,3.665l0,0
				c7.218-23.83,29.335-41.158,55.514-41.167l0,0c32.038,0.002,58.003,25.968,58.007,58.004l0,0c0,5.521-0.782,10.866-2.229,15.927
				l0,0c10.29,1.358,19.553,6.017,26.667,12.868l0,0c11.097-10.111,25.87-16.296,42.068-16.293l0,0
				c16.871-0.009,32.803,5.865,44.466,17.503l0,0c11.68,11.625,18.892,28.903,18.872,50.921l0,0c0,0.525-0.004,1.057-0.012,1.589
				l0,0c-0.033,2.187-1.817,3.938-3.998,3.938l0,0C2796.314,6573.917,2796.293,6573.917,2796.271,6573.917L2796.271,6573.917z"/>
		</g>
	</g>
	<g>
		<g>
			<path fill="#2F2933" d="M2699.971,6571.009c-2.037-0.858-2.992-3.202-2.138-5.239l0,0c0.854-2.03,1.542-4.145,2.048-6.332l0,0
				h0.002c0.498-2.151,2.648-3.492,4.799-2.992l0,0c2.152,0.498,3.492,2.646,2.993,4.799l0,0c-0.608,2.633-1.438,5.183-2.466,7.627
				l0,0c-0.645,1.528-2.129,2.451-3.691,2.451l0,0C2701.001,6571.322,2700.477,6571.221,2699.971,6571.009L2699.971,6571.009z"/>
		</g>
	</g>
	<g>
		<g>
			<path fill="#2F2933" d="M2700.722,6546.646c-1.919-20.012-18.796-35.687-39.321-35.68l0,0c-5.467,0-10.652,1.105-15.377,3.102
				l0,0v0.002c-2.037,0.859-4.383-0.092-5.242-2.127l0,0c-0.861-2.035,0.091-4.381,2.125-5.242l0,0
				c5.686-2.405,11.945-3.736,18.492-3.734l0,0c24.688,0.007,44.97,18.82,47.284,42.914l0,0c0.212,2.199-1.399,4.154-3.6,4.363l0,0
				c-0.129,0.013-0.259,0.02-0.386,0.02l0,0C2702.661,6550.264,2700.919,6548.715,2700.722,6546.646L2700.722,6546.646z"/>
		</g>
	</g>
	<path fill="none" stroke="#10273D" stroke-width="8" stroke-linecap="round" stroke-linejoin="round" d="M2571.244,6499.465
		c0-15.742-12.762-28.503-28.502-28.503c-15.742,0-28.502,12.761-28.502,28.503"/>
	<polygon fill="#29D9C2" points="3724,6423.248 3724,6423.248 3550.346,6423.248 3550.346,6423.248 3550.346,6400.396 
		3550.346,6400.396 3724,6400.396 3724,6400.396 	"/>
	<polygon fill="#29D9C2" points="3649,6287.918 3649,5907.918 3661,5905.918 3661,6291.918 	"/>
	<polygon fill="#29D9C2" points="3609,6287.918 3609,5907.918 3621,5905.918 3621,6291.918 	"/>
	<path fill="#29D9C2" d="M3619,5898.918c0-1.5,5.5-56.5,11-59.5s17,5.5,17,5.5l2.5,53c0,0-9-12.5-15.5-10
		S3619,5898.918,3619,5898.918z"/>
	<path fill="#29D9C2" d="M3663,6337.918c0,3.312-2.688,6-6,6h-42c-3.312,0-6-2.688-6-6v-24c0-3.312,2.688-6,6-6h42
		c3.312,0,6,2.688,6,6V6337.918z"/>
	<path fill="#29D9C2" d="M3706,6337.918c0,3.312-2.688,6-6,6h-17c-3.312,0-6-2.688-6-6v-24c0-3.312,2.688-6,6-6h17
		c3.312,0,6,2.688,6,6V6337.918z"/>
	<path fill="#29D9C2" d="M3596,6337.918c0,3.312-2.688,6-6,6h-17c-3.312,0-6-2.688-6-6v-24c0-3.312,2.688-6,6-6h17
		c3.312,0,6,2.688,6,6V6337.918z"/>
	<path fill="none" stroke="#10273D" stroke-width="8" stroke-linecap="round" stroke-linejoin="round" d="M3619.635,5903.287v-37.24
		c0-5.701,5.424-26.411,12.111-26.411h6.46c6.688,0,12.112,20.71,12.112,26.411v42.872"/>
	<path fill="none" stroke="#10273D" stroke-width="8" stroke-linecap="round" stroke-linejoin="round" d="M3644.607,5829.029
		c0,5.41-4.386,9.793-9.793,9.793l0,0c-5.407,0-9.793-4.383-9.793-9.793l0,0c0-5.408,4.386-9.791,9.793-9.791l0,0
		C3640.223,5819.238,3644.607,5823.622,3644.607,5829.029L3644.607,5829.029z"/>
	<path fill="none" stroke="#10273D" stroke-width="8" stroke-linecap="round" stroke-linejoin="round" d="M3622.572,6293.496
		v-373.234c0-5.408-4.385-15.668-9.792-15.668h-5.224c-5.407,0-9.791,10.26-9.791,15.668v373.234H3622.572z"/>
	<path fill="none" stroke="#10273D" stroke-width="8" stroke-linecap="round" stroke-linejoin="round" d="M3647.38,6293.496
		v-386.943c0-5.408-4.385-17.627-9.792-17.627h-5.222c-5.408,0-9.793,12.219-9.793,17.627v386.943H3647.38z"/>
	<path fill="none" stroke="#10273D" stroke-width="8" stroke-linecap="round" stroke-linejoin="round" d="M3673.494,6293.496
		v-373.234c0-5.408-4.385-15.668-9.793-15.668h-5.223c-5.407,0-9.793,10.26-9.793,15.668v373.234H3673.494z"/>
	<path fill="none" stroke="#10273D" stroke-width="8" stroke-linecap="round" stroke-linejoin="round" d="M3704.178,6348.521
		c0,5.408-4.385,9.793-9.792,9.793H3578.18c-5.408,0-9.792-4.385-9.792-9.793v-43.088c0-5.408,4.384-9.793,9.792-9.793h116.206
		c5.408,0,9.792,4.385,9.792,9.793V6348.521z"/>
	<polyline fill="none" stroke="#10273D" stroke-width="8" stroke-linecap="round" stroke-linejoin="round" points="
		3586.34,6357.986 3602.987,6377.572 3671.535,6377.572 3685.245,6360.924 	"/>
	<polygon fill="none" stroke="#10273D" stroke-width="8" stroke-linecap="round" stroke-linejoin="round" points="3718.54,6402.708 
		3718.54,6402.708 3555.331,6402.708 3555.331,6402.708 3555.331,6379.206 3555.331,6379.206 3718.54,6379.206 3718.54,6379.206 	
		"/>
	<polygon fill="none" stroke="#10273D" stroke-width="8" stroke-linecap="round" stroke-linejoin="round" points="
		3723.762,6426.209 3723.762,6426.209 3550.107,6426.209 3550.107,6426.209 3550.107,6402.708 3550.107,6402.708 3723.762,6402.708 
		3723.762,6402.708 	"/>
	<polygon fill="none" stroke="#10273D" stroke-width="8" stroke-linecap="round" stroke-linejoin="round" points="
		3735.513,6449.711 3735.513,6449.711 3538.357,6449.711 3538.357,6449.711 3538.357,6426.209 3538.357,6426.209 3735.513,6426.209 
		3735.513,6426.209 	"/>
	<path fill="none" stroke="#10273D" stroke-width="8" stroke-linecap="round" stroke-linejoin="round" d="M3397.997,6463.941
		v-11.619c3.917,0,479.183,0,479.183,0v12.117"/>
	<path fill="none" stroke="#10273D" stroke-width="8" stroke-linecap="round" stroke-linejoin="round" d="M3357.836,6478.585
		v-12.554c4.574,0,559.504,0,559.504,0v13.22"/>
	
		<line fill="none" stroke="#10273D" stroke-width="8" stroke-linecap="round" stroke-linejoin="round" x1="3635.814" y1="5819.238" x2="3635.814" y2="5754.475"/>
	<polygon fill="none" stroke="#10273D" stroke-width="8" stroke-linecap="round" stroke-linejoin="round" points="3337,6480.918 
		3931,6480.918 3921,6496.918 3349,6496.918 	"/>
	<path fill="none" stroke="#10273D" stroke-width="8" stroke-linecap="round" stroke-linejoin="round" d="M3349,6496.918
		c0,0-18,11-18,37s21,36,21,36h568c0,0,17-8,17-40s-16-33-16-33"/>
	<g>
		<g>
			<path fill="#2F2933" d="M2402.999,6571.919H2386c-1.054,0-2.084-0.427-2.828-1.173l0,0c-0.746-0.744-1.171-1.775-1.171-2.828l0,0
				c-0.002-0.361,0.003-0.719,0.009-1.08l0,0c0.58-27.671,23.184-49.917,50.989-49.92l0,0c6.607,0,12.938,1.26,18.739,3.555l0,0
				c2.056,0.812,3.062,3.135,2.25,5.191l0,0c-0.812,2.055-3.135,3.062-5.189,2.25l0,0c-4.89-1.934-10.209-2.995-15.8-2.995l0,0
				c-22.397-0.004-40.801,17.131-42.815,38.999l0,0h12.815l165,0.002c2.21,0,4.001,1.79,4.001,3.999l0,0
				c0,2.209-1.792,4.001-4.001,4.001l0,0L2402.999,6571.919L2402.999,6571.919z"/>
		</g>
	</g>
	<g>
		<g>
			<path fill="#2F2933" d="M2586,6570.917c-2.209,0-4-1.79-4-3.999l0,0c0-2.211,1.791-4,4-4l0,0h18.999c2.209,0,4,1.79,4,4l0,0
				c0,2.209-1.792,3.999-4,3.999l0,0H2586L2586,6570.917z"/>
		</g>
	</g>
</g>
</svg>
