<?xml version="1.0" encoding="utf-8"?>
<!-- Generator: Adobe Illustrator 16.0.0, SVG Export Plug-In . SVG Version: 6.00 Build 0)  -->
<!DOCTYPE svg PUBLIC "-//W3C//DTD SVG 1.1//EN" "http://www.w3.org/Graphics/SVG/1.1/DTD/svg11.dtd">
<svg version="1.1" id="Layer_1" xmlns="http://www.w3.org/2000/svg" xmlns:xlink="http://www.w3.org/1999/xlink" x="0px" y="0px"
	 width="556px" height="98.247px" viewBox="0 0 556 98.247" enable-background="new 0 0 556 98.247" xml:space="preserve">
<path fill-rule="evenodd" clip-rule="evenodd" fill="#23C6B6" d="M391.888,0l-34.072,14.936l39.26-4.089l115.067,72.624
	l14.769,14.769L556,98.247L391.888,0z M418.769,84.414l-12.262-21.693l-12.261,19.807l-20.75-21.692l-9.432,14.147l-11.881-57.578
	l-166.85,73.14L83.628,53.289L0,98.09l432.742,0.123l-6.429-12.855L418.769,84.414z M152.794,95.261l-11.79-9.432l-21.693-6.131
	l0.471,5.188v8.488l-7.545-10.375l-11.79-8.017l1.415,5.659l-2.83,3.772l-0.943,3.772l-12.261-26.88l85.357,30.181L152.794,95.261z
	 M423.484,77.34l-7.074-20.75l-20.278-16.033l3.773,14.147l9.903,3.772L423.484,77.34z"/>
</svg>
