<?xml version="1.0" encoding="utf-8"?>
<!-- Generator: Adobe Illustrator 16.0.0, SVG Export Plug-In . SVG Version: 6.00 Build 0)  -->
<!DOCTYPE svg PUBLIC "-//W3C//DTD SVG 1.1//EN" "http://www.w3.org/Graphics/SVG/1.1/DTD/svg11.dtd">
<svg version="1.1" id="Layer_1" xmlns="http://www.w3.org/2000/svg" xmlns:xlink="http://www.w3.org/1999/xlink" x="0px" y="0px"
	 width="1885.406px" height="294px" viewBox="0 0 1885.406 294" enable-background="new 0 0 1885.406 294" xml:space="preserve">
<path fill="#251F29" d="M1885.406,294H0L268.495,24l46.344,19.5l18.538-6l166.838,111L614.529,57l92.688,55.5L840.07,9l24.717,18
	l10.812-7.5l148.304,81l71.061-52.5l222.45,88.5L1428.637,0l44.801,25.5l18.536-10.5L1885.406,294z M1497.38,89.5l35-7l65,26l-96-74
	l-22,13l-46-38l62,110l29,6l43,49l-45-75L1497.38,89.5z M1166.88,94.5l-1.5,15l-64.5-46.5l13.5,30l27,16.5l64.5,69l-21-48l58.5,16.5
	l48,16.5l12-12l-79.5-31.5L1166.88,94.5z M644.38,95.5l-29-29l16,60l18,12l15,34l-1-35l-23-28.5l27,10l15,21.5l14,9.5l-23.5-41.5
	L644.38,95.5z M242.88,114l-18,10.5l-10,0.5l-14.5,9.5l9.5,0.5l-10,10l-1,26l6-20l31.5-21l17.5-12.5l-3-25L242.88,114z M378.38,85.5
	l-22.5-15l-4.5-12l-26.5-7l68.5,65l-25-33L378.38,85.5z M313.88,51.5l-42-15l5,26.5l8.5,10.5l-2.5,15l4.5,10.5l5-10.5
	c0,0,70.5,104,69.5,101s-36-80-36-80l40,27L313.88,51.5z M943.38,105h12l39,15l-45-31.5L935.88,66l-55.5-34.5l6,19.5l-3,12l-40.5-39
	l36,72l13.5-12l9,13.5l12,28.5l43.5,52.5l-13.5-34.5l-21-37.5l-9-27l-18-10.5l34.5,13.5L943.38,105z M808.38,108.5l-8,45l-13,18
	l21-8l16-43l17-14l4-31l-15,25L808.38,108.5z"/>
</svg>
